<mxfile host="app.diagrams.net" agent="Mozilla/5.0 (Windows NT 10.0; Win64; x64) AppleWebKit/537.36 (KHTML, like Gecko) Chrome/129.0.0.0 Safari/537.36" version="24.7.14" pages="3">
  <diagram name="Halaman-1" id="HXAiAZJhI9n4RkOiRODG">
    <mxGraphModel dx="634" dy="587" grid="1" gridSize="10" guides="1" tooltips="1" connect="1" arrows="1" fold="1" page="1" pageScale="1" pageWidth="827" pageHeight="1169" math="0" shadow="0">
      <root>
        <mxCell id="0" />
        <mxCell id="1" parent="0" />
        <mxCell id="k8RQnrAyESc2wpGttQcG-3" style="edgeStyle=orthogonalEdgeStyle;rounded=0;orthogonalLoop=1;jettySize=auto;html=1;exitX=0.5;exitY=1;exitDx=0;exitDy=0;" edge="1" parent="1" source="k8RQnrAyESc2wpGttQcG-1" target="k8RQnrAyESc2wpGttQcG-2">
          <mxGeometry relative="1" as="geometry" />
        </mxCell>
        <mxCell id="k8RQnrAyESc2wpGttQcG-5" style="edgeStyle=orthogonalEdgeStyle;rounded=0;orthogonalLoop=1;jettySize=auto;html=1;exitX=1;exitY=0.25;exitDx=0;exitDy=0;entryX=0;entryY=0.25;entryDx=0;entryDy=0;" edge="1" parent="1" source="k8RQnrAyESc2wpGttQcG-1" target="k8RQnrAyESc2wpGttQcG-4">
          <mxGeometry relative="1" as="geometry" />
        </mxCell>
        <mxCell id="k8RQnrAyESc2wpGttQcG-13" value="Filebeat" style="edgeLabel;html=1;align=center;verticalAlign=middle;resizable=0;points=[];" vertex="1" connectable="0" parent="k8RQnrAyESc2wpGttQcG-5">
          <mxGeometry x="-0.0476" y="4" relative="1" as="geometry">
            <mxPoint y="3" as="offset" />
          </mxGeometry>
        </mxCell>
        <mxCell id="k8RQnrAyESc2wpGttQcG-1" value="ELK Stack" style="rounded=0;whiteSpace=wrap;html=1;" vertex="1" parent="1">
          <mxGeometry x="70" y="110" width="120" height="60" as="geometry" />
        </mxCell>
        <mxCell id="k8RQnrAyESc2wpGttQcG-9" style="edgeStyle=orthogonalEdgeStyle;rounded=0;orthogonalLoop=1;jettySize=auto;html=1;exitX=0.25;exitY=1;exitDx=0;exitDy=0;entryX=0.25;entryY=0;entryDx=0;entryDy=0;" edge="1" parent="1" source="k8RQnrAyESc2wpGttQcG-2" target="k8RQnrAyESc2wpGttQcG-7">
          <mxGeometry relative="1" as="geometry" />
        </mxCell>
        <mxCell id="k8RQnrAyESc2wpGttQcG-12" style="edgeStyle=orthogonalEdgeStyle;rounded=0;orthogonalLoop=1;jettySize=auto;html=1;exitX=1;exitY=0.5;exitDx=0;exitDy=0;entryX=0;entryY=0.5;entryDx=0;entryDy=0;" edge="1" parent="1" source="k8RQnrAyESc2wpGttQcG-2" target="k8RQnrAyESc2wpGttQcG-11">
          <mxGeometry relative="1" as="geometry" />
        </mxCell>
        <mxCell id="k8RQnrAyESc2wpGttQcG-2" value="TheHive" style="rounded=0;whiteSpace=wrap;html=1;" vertex="1" parent="1">
          <mxGeometry x="70" y="220" width="120" height="60" as="geometry" />
        </mxCell>
        <mxCell id="k8RQnrAyESc2wpGttQcG-6" style="edgeStyle=orthogonalEdgeStyle;rounded=0;orthogonalLoop=1;jettySize=auto;html=1;exitX=0;exitY=0.75;exitDx=0;exitDy=0;entryX=1;entryY=0.75;entryDx=0;entryDy=0;" edge="1" parent="1" source="k8RQnrAyESc2wpGttQcG-4" target="k8RQnrAyESc2wpGttQcG-1">
          <mxGeometry relative="1" as="geometry" />
        </mxCell>
        <mxCell id="k8RQnrAyESc2wpGttQcG-14" value="output" style="edgeLabel;html=1;align=center;verticalAlign=middle;resizable=0;points=[];" vertex="1" connectable="0" parent="k8RQnrAyESc2wpGttQcG-6">
          <mxGeometry x="0.0667" relative="1" as="geometry">
            <mxPoint x="1" as="offset" />
          </mxGeometry>
        </mxCell>
        <mxCell id="k8RQnrAyESc2wpGttQcG-4" value="File Logging" style="rounded=0;whiteSpace=wrap;html=1;" vertex="1" parent="1">
          <mxGeometry x="340" y="110" width="120" height="60" as="geometry" />
        </mxCell>
        <mxCell id="k8RQnrAyESc2wpGttQcG-10" style="edgeStyle=orthogonalEdgeStyle;rounded=0;orthogonalLoop=1;jettySize=auto;html=1;exitX=0.75;exitY=0;exitDx=0;exitDy=0;entryX=0.75;entryY=1;entryDx=0;entryDy=0;" edge="1" parent="1" source="k8RQnrAyESc2wpGttQcG-7" target="k8RQnrAyESc2wpGttQcG-2">
          <mxGeometry relative="1" as="geometry" />
        </mxCell>
        <mxCell id="k8RQnrAyESc2wpGttQcG-7" value="Cortex" style="rounded=0;whiteSpace=wrap;html=1;" vertex="1" parent="1">
          <mxGeometry x="70" y="320" width="120" height="60" as="geometry" />
        </mxCell>
        <mxCell id="k8RQnrAyESc2wpGttQcG-11" value="" style="rounded=0;whiteSpace=wrap;html=1;" vertex="1" parent="1">
          <mxGeometry x="340" y="220" width="120" height="60" as="geometry" />
        </mxCell>
      </root>
    </mxGraphModel>
  </diagram>
  <diagram id="ihz5HvFIj0OEBr6-AhFf" name="Program Otomasi Analisis Deteksi">
    <mxGraphModel dx="807" dy="747" grid="1" gridSize="10" guides="1" tooltips="1" connect="1" arrows="1" fold="1" page="1" pageScale="1" pageWidth="827" pageHeight="1169" math="0" shadow="0">
      <root>
        <mxCell id="0" />
        <mxCell id="1" parent="0" />
        <mxCell id="9aFWiJzafFNl99qF7ESM-4" style="edgeStyle=orthogonalEdgeStyle;rounded=0;orthogonalLoop=1;jettySize=auto;html=1;exitX=0.5;exitY=1;exitDx=0;exitDy=0;entryX=0.5;entryY=0;entryDx=0;entryDy=0;" edge="1" parent="1" source="9aFWiJzafFNl99qF7ESM-1" target="9aFWiJzafFNl99qF7ESM-2">
          <mxGeometry relative="1" as="geometry" />
        </mxCell>
        <mxCell id="9aFWiJzafFNl99qF7ESM-10" value="Dirsearch" style="edgeLabel;html=1;align=center;verticalAlign=middle;resizable=0;points=[];" vertex="1" connectable="0" parent="9aFWiJzafFNl99qF7ESM-4">
          <mxGeometry x="-0.2409" y="2" relative="1" as="geometry">
            <mxPoint y="1" as="offset" />
          </mxGeometry>
        </mxCell>
        <mxCell id="9aFWiJzafFNl99qF7ESM-1" value="Apache2" style="rounded=0;whiteSpace=wrap;html=1;" vertex="1" parent="1">
          <mxGeometry x="50" y="80" width="120" height="60" as="geometry" />
        </mxCell>
        <mxCell id="9aFWiJzafFNl99qF7ESM-5" style="edgeStyle=orthogonalEdgeStyle;rounded=0;orthogonalLoop=1;jettySize=auto;html=1;exitX=0.5;exitY=1;exitDx=0;exitDy=0;entryX=0.5;entryY=0;entryDx=0;entryDy=0;" edge="1" parent="1" source="9aFWiJzafFNl99qF7ESM-2" target="9aFWiJzafFNl99qF7ESM-3">
          <mxGeometry relative="1" as="geometry" />
        </mxCell>
        <mxCell id="9aFWiJzafFNl99qF7ESM-6" value="HTML Beautysoap" style="edgeLabel;html=1;align=center;verticalAlign=middle;resizable=0;points=[];" vertex="1" connectable="0" parent="9aFWiJzafFNl99qF7ESM-5">
          <mxGeometry x="-0.15" relative="1" as="geometry">
            <mxPoint y="1" as="offset" />
          </mxGeometry>
        </mxCell>
        <mxCell id="9aFWiJzafFNl99qF7ESM-2" value="Directory Web" style="rounded=0;whiteSpace=wrap;html=1;" vertex="1" parent="1">
          <mxGeometry x="50" y="180" width="120" height="60" as="geometry" />
        </mxCell>
        <mxCell id="9aFWiJzafFNl99qF7ESM-8" style="edgeStyle=orthogonalEdgeStyle;rounded=0;orthogonalLoop=1;jettySize=auto;html=1;exitX=0.5;exitY=1;exitDx=0;exitDy=0;entryX=0.5;entryY=0;entryDx=0;entryDy=0;" edge="1" parent="1" source="9aFWiJzafFNl99qF7ESM-3" target="9aFWiJzafFNl99qF7ESM-7">
          <mxGeometry relative="1" as="geometry" />
        </mxCell>
        <mxCell id="9aFWiJzafFNl99qF7ESM-9" value="ML Detection" style="edgeLabel;html=1;align=center;verticalAlign=middle;resizable=0;points=[];" vertex="1" connectable="0" parent="9aFWiJzafFNl99qF7ESM-8">
          <mxGeometry x="-0.4227" relative="1" as="geometry">
            <mxPoint y="6" as="offset" />
          </mxGeometry>
        </mxCell>
        <mxCell id="9aFWiJzafFNl99qF7ESM-3" value="HTML" style="rounded=0;whiteSpace=wrap;html=1;" vertex="1" parent="1">
          <mxGeometry x="50" y="280" width="120" height="60" as="geometry" />
        </mxCell>
        <mxCell id="9aFWiJzafFNl99qF7ESM-12" style="edgeStyle=orthogonalEdgeStyle;rounded=0;orthogonalLoop=1;jettySize=auto;html=1;exitX=1;exitY=0.5;exitDx=0;exitDy=0;entryX=0;entryY=0.5;entryDx=0;entryDy=0;" edge="1" parent="1" source="9aFWiJzafFNl99qF7ESM-7" target="9aFWiJzafFNl99qF7ESM-11">
          <mxGeometry relative="1" as="geometry" />
        </mxCell>
        <mxCell id="9aFWiJzafFNl99qF7ESM-13" value="FileBeat" style="edgeLabel;html=1;align=center;verticalAlign=middle;resizable=0;points=[];" vertex="1" connectable="0" parent="9aFWiJzafFNl99qF7ESM-12">
          <mxGeometry x="-0.0886" y="-2" relative="1" as="geometry">
            <mxPoint y="-2" as="offset" />
          </mxGeometry>
        </mxCell>
        <mxCell id="9aFWiJzafFNl99qF7ESM-7" value="Log" style="rounded=0;whiteSpace=wrap;html=1;" vertex="1" parent="1">
          <mxGeometry x="50" y="380" width="120" height="60" as="geometry" />
        </mxCell>
        <mxCell id="9aFWiJzafFNl99qF7ESM-11" value="ELK Stack" style="rounded=0;whiteSpace=wrap;html=1;" vertex="1" parent="1">
          <mxGeometry x="250" y="380" width="140" height="60" as="geometry" />
        </mxCell>
      </root>
    </mxGraphModel>
  </diagram>
  <diagram id="r1MrAXim9BoMusJcdkj7" name="ML Detection">
    <mxGraphModel dx="1858" dy="749" grid="1" gridSize="10" guides="1" tooltips="1" connect="1" arrows="1" fold="1" page="1" pageScale="1" pageWidth="827" pageHeight="1169" math="0" shadow="0">
      <root>
        <mxCell id="0" />
        <mxCell id="1" parent="0" />
        <mxCell id="YEYnjFx0k_RvBcWkM0yp-1" value="Statis Normal" style="rounded=0;whiteSpace=wrap;html=1;" vertex="1" parent="1">
          <mxGeometry x="190" y="80" width="120" height="60" as="geometry" />
        </mxCell>
        <mxCell id="YEYnjFx0k_RvBcWkM0yp-2" value="Dinamis Normal" style="rounded=0;whiteSpace=wrap;html=1;" vertex="1" parent="1">
          <mxGeometry x="190" y="160" width="120" height="60" as="geometry" />
        </mxCell>
        <mxCell id="YEYnjFx0k_RvBcWkM0yp-14" style="edgeStyle=orthogonalEdgeStyle;rounded=0;orthogonalLoop=1;jettySize=auto;html=1;exitX=1;exitY=0.5;exitDx=0;exitDy=0;entryX=0;entryY=0.5;entryDx=0;entryDy=0;" edge="1" parent="1" source="YEYnjFx0k_RvBcWkM0yp-3" target="YEYnjFx0k_RvBcWkM0yp-13">
          <mxGeometry relative="1" as="geometry" />
        </mxCell>
        <mxCell id="YEYnjFx0k_RvBcWkM0yp-3" value="Statis Defacement" style="rounded=0;whiteSpace=wrap;html=1;" vertex="1" parent="1">
          <mxGeometry x="190" y="240" width="120" height="60" as="geometry" />
        </mxCell>
        <mxCell id="YEYnjFx0k_RvBcWkM0yp-11" style="edgeStyle=orthogonalEdgeStyle;rounded=0;orthogonalLoop=1;jettySize=auto;html=1;exitX=1;exitY=0.5;exitDx=0;exitDy=0;entryX=0;entryY=0.5;entryDx=0;entryDy=0;" edge="1" parent="1" source="YEYnjFx0k_RvBcWkM0yp-4" target="YEYnjFx0k_RvBcWkM0yp-10">
          <mxGeometry relative="1" as="geometry" />
        </mxCell>
        <mxCell id="YEYnjFx0k_RvBcWkM0yp-4" value="Dinamis Defacement" style="rounded=0;whiteSpace=wrap;html=1;" vertex="1" parent="1">
          <mxGeometry x="190" y="320" width="120" height="60" as="geometry" />
        </mxCell>
        <mxCell id="YEYnjFx0k_RvBcWkM0yp-6" style="edgeStyle=orthogonalEdgeStyle;rounded=0;orthogonalLoop=1;jettySize=auto;html=1;exitX=1;exitY=0;exitDx=0;exitDy=0;entryX=0;entryY=0.5;entryDx=0;entryDy=0;" edge="1" parent="1" source="YEYnjFx0k_RvBcWkM0yp-5" target="YEYnjFx0k_RvBcWkM0yp-1">
          <mxGeometry relative="1" as="geometry" />
        </mxCell>
        <mxCell id="YEYnjFx0k_RvBcWkM0yp-7" style="edgeStyle=orthogonalEdgeStyle;rounded=0;orthogonalLoop=1;jettySize=auto;html=1;exitX=1;exitY=0.25;exitDx=0;exitDy=0;entryX=0;entryY=0.5;entryDx=0;entryDy=0;" edge="1" parent="1" source="YEYnjFx0k_RvBcWkM0yp-5" target="YEYnjFx0k_RvBcWkM0yp-2">
          <mxGeometry relative="1" as="geometry" />
        </mxCell>
        <mxCell id="YEYnjFx0k_RvBcWkM0yp-8" style="edgeStyle=orthogonalEdgeStyle;rounded=0;orthogonalLoop=1;jettySize=auto;html=1;exitX=1;exitY=0.5;exitDx=0;exitDy=0;entryX=0;entryY=0.5;entryDx=0;entryDy=0;" edge="1" parent="1" source="YEYnjFx0k_RvBcWkM0yp-5" target="YEYnjFx0k_RvBcWkM0yp-3">
          <mxGeometry relative="1" as="geometry" />
        </mxCell>
        <mxCell id="YEYnjFx0k_RvBcWkM0yp-9" style="edgeStyle=orthogonalEdgeStyle;rounded=0;orthogonalLoop=1;jettySize=auto;html=1;exitX=1;exitY=1;exitDx=0;exitDy=0;entryX=0;entryY=0.5;entryDx=0;entryDy=0;" edge="1" parent="1" source="YEYnjFx0k_RvBcWkM0yp-5" target="YEYnjFx0k_RvBcWkM0yp-4">
          <mxGeometry relative="1" as="geometry" />
        </mxCell>
        <mxCell id="YEYnjFx0k_RvBcWkM0yp-5" value="File Logging" style="rounded=1;whiteSpace=wrap;html=1;" vertex="1" parent="1">
          <mxGeometry x="30" y="200" width="120" height="60" as="geometry" />
        </mxCell>
        <mxCell id="YEYnjFx0k_RvBcWkM0yp-10" value="Direct safe web" style="rounded=0;whiteSpace=wrap;html=1;" vertex="1" parent="1">
          <mxGeometry x="354" y="320" width="120" height="60" as="geometry" />
        </mxCell>
        <mxCell id="YEYnjFx0k_RvBcWkM0yp-13" value="Restore Website" style="rounded=0;whiteSpace=wrap;html=1;" vertex="1" parent="1">
          <mxGeometry x="354" y="240" width="120" height="60" as="geometry" />
        </mxCell>
      </root>
    </mxGraphModel>
  </diagram>
</mxfile>
